<svg width="123" height="47" xmlns="http://www.w3.org/2000/svg">
 <title/>

 <g>
  <title>background</title>
  <rect fill="none" id="canvas_background" height="49" width="125" y="-1" x="-1"/>
 </g>
 <g>
  <title>Layer 1</title>
  <path stroke="null" id="svg_2" d="m15.001169,10.79138a2.786605,3.730852 0 0 0 -3.915447,0.472616l-6.95115,11.167862a2.773397,3.713169 0 0 0 0,4.769589l6.95115,11.167862a2.779839,3.721793 0 1 0 4.268262,-4.769589l-5.468427,-8.782944l5.468566,-8.783068a2.780627,3.722848 0 0 0 -0.352954,-5.242329z"/>
  <path stroke="null" id="svg_3" d="m98.313871,7.471659a3.045791,2.983846 0 0 0 -3.547941,2.321131l-6.035101,29.561651a3.010031,2.948814 0 0 0 2.369267,3.475586a2.869808,2.811442 0 0 0 0.595247,0.057747a3.015161,2.953839 0 0 0 2.952694,-2.378484l6.035101,-29.561799a3.010082,2.948863 0 0 0 -2.369267,-3.475833z"/>
  <text stroke="#000" transform="matrix(1.301664113998413,0,0,1,-6.146406322717667,0) " font-weight="bold" xml:space="preserve" text-anchor="start" font-family="'League Gothic', sans-serif" font-size="22" id="svg_5" y="31.930141" x="18.828659" stroke-width="0" fill="#000000">Felipe HP</text>
  <path transform="rotate(-177.1184844970703 109.95249938964842,25.19327163696289) " stroke="null" id="svg_6" d="m115.205504,11.158432a2.78661,3.73085 0 0 0 -3.91544,0.47261l-6.95115,11.16787a2.7734,3.71317 0 0 0 0,4.76958l6.95115,11.16787a2.77984,3.72179 0 1 0 4.26826,-4.76959l-5.46843,-8.78295l5.46857,-8.78306a2.78063,3.72285 0 0 0 -0.35296,-5.24233z"/>
 </g>
</svg>